<svg width="24" height="24" viewBox="0 0 24 24" fill="none" xmlns="http://www.w3.org/2000/svg">
<path fill-rule="evenodd" clip-rule="evenodd" d="M5.97309 19.714C5.86293 19.714 5.77279 19.6214 5.77279 19.5082C5.77279 19.3951 5.86293 19.3025 5.97309 19.3025C6.08326 19.3025 6.17339 19.3951 6.17339 19.5082C6.17339 19.6214 6.08326 19.714 5.97309 19.714ZM6.77429 20.1255C6.66412 20.1255 6.57399 20.0329 6.57399 19.9198C6.57399 19.8066 6.66412 19.714 6.77429 19.714C6.88445 19.714 6.97459 19.8066 6.97459 19.9198C6.97459 20.0329 6.88445 20.1255 6.77429 20.1255ZM8.67713 20.1255C8.49886 20.1255 8.40873 20.0329 8.47683 19.9198C8.54493 19.8066 8.63507 19.714 8.67713 19.714C8.71919 19.714 8.80933 19.8066 8.87743 19.9198C8.94553 20.0329 8.8554 20.1255 8.67713 20.1255ZM7.77578 20.3313C7.66562 20.3313 7.57548 20.2387 7.57548 20.1255C7.57548 20.0123 7.66562 19.9198 7.77578 19.9198C7.88595 19.9198 7.97608 20.0123 7.97608 20.1255C7.97608 20.2387 7.88595 20.3313 7.77578 20.3313Z" fill="black"/>
<path d="M9.01804 0.376526C6.82557 0.966662 5.27325 1.90022 3.5627 3.65726C1.82771 5.4396 0.938579 7.01824 0.359715 9.34257C-0.362964 12.2457 0.012196 15.4024 1.40467 18.1325C2.36811 20.0218 4.69979 22.3412 6.60103 23.3017C8.66852 24.3462 8.862 24.2849 8.93612 22.5626L8.995 21.1974L7.81945 21.2087C6.30659 21.2233 5.48777 20.7457 4.86183 19.4835C4.60245 18.9607 4.1027 18.2843 3.75078 17.9802C3.30691 17.5965 3.17532 17.3617 3.32033 17.2127C3.58813 16.9376 4.42238 17.1983 4.24051 17.5004C4.15518 17.6423 4.22068 17.6806 4.41677 17.6032C4.60024 17.5308 4.90229 17.6701 5.15067 17.9417C5.58872 18.4207 5.72132 18.8039 5.3722 18.5823C5.26203 18.5123 5.1719 18.5631 5.1719 18.695C5.1719 18.8269 5.29869 18.885 5.45352 18.8238C5.60835 18.7629 5.89117 18.8901 6.08186 19.1066C6.48946 19.5691 7.51039 19.8066 8.31299 19.6255C8.73542 19.5302 8.98559 19.2664 9.28704 18.5987L9.69264 17.7002L8.83557 17.5794C7.63377 17.4102 6.09407 16.5573 5.46794 15.7139C4.26474 14.0935 4.01517 11.3327 4.89929 9.4257C5.27285 8.61971 5.41206 8.01167 5.38301 7.31269C5.36058 6.77276 5.40104 6.05525 5.47315 5.718C5.64661 4.90728 6.32482 4.9009 7.85891 5.69578C8.96676 6.27007 9.04287 6.28077 10.491 6.06636C11.5522 5.90936 12.4119 5.90936 13.4731 6.06636C14.9212 6.28077 14.9974 6.27007 16.1052 5.69578C17.6393 4.9009 18.3175 4.90728 18.491 5.718C18.5631 6.05525 18.6035 6.77276 18.5811 7.31269C18.5521 8.01167 18.6913 8.61971 19.0648 9.4257C20.0283 11.5039 19.6529 14.4645 18.2338 15.9806C17.4747 16.7913 15.6373 17.6563 14.6739 17.6563C14.1789 17.6563 14.1781 17.6594 14.5313 18.2123C14.8063 18.6426 14.909 19.3508 14.9865 21.348C15.1065 24.441 15.1071 24.4415 17.3631 23.3017C19.2643 22.3412 21.596 20.0218 22.5595 18.1325C23.3955 16.4931 24 14.0484 24 12.3064C24 10.5644 23.3955 8.1197 22.5595 6.48036C21.7082 4.81119 19.2782 2.31484 17.6533 1.44034C15.0032 0.0139663 11.8216 -0.378018 9.01804 0.376526Z" fill="black"/>
</svg>
